<?xml version="1.0" encoding="utf-8"?>
<!-- Generator: Adobe Illustrator 16.0.0, SVG Export Plug-In . SVG Version: 6.00 Build 0)  -->
<!DOCTYPE svg PUBLIC "-//W3C//DTD SVG 1.0//EN" "http://www.w3.org/TR/2001/REC-SVG-20010904/DTD/svg10.dtd">
<svg version="1.0" id="Warstwa_1" xmlns="http://www.w3.org/2000/svg" xmlns:xlink="http://www.w3.org/1999/xlink" x="0px" y="0px"
	 width="25px" height="100px" viewBox="0 0 25 100" enable-background="new 0 0 25 100" xml:space="preserve">
<g>
	<g>
		<g>
			<g>
				<g>
					<rect x="20.92" y="16.453" fill="none" width="3.588" height="4.188"/>
					<rect x="20.92" y="16.453" fill-rule="evenodd" clip-rule="evenodd" fill="none" width="3.588" height="4.188"/>
				</g>
				<rect x="21.562" y="17.395" width="2.303" height="2.303"/>
				<rect x="21.562" y="17.395" fill-rule="evenodd" clip-rule="evenodd" width="2.303" height="2.303"/>
			</g>
			<g>
				<g>
					<rect x="20.92" y="12.265" fill="none" width="3.588" height="4.188"/>
					<rect x="20.92" y="12.265" fill-rule="evenodd" clip-rule="evenodd" fill="none" width="3.588" height="4.188"/>
				</g>
				<rect x="21.562" y="13.208" width="2.303" height="2.303"/>
				<rect x="21.562" y="13.208" fill-rule="evenodd" clip-rule="evenodd" width="2.303" height="2.303"/>
			</g>
			<g>
				<g>
					<rect x="20.92" y="8.078" fill="none" width="3.588" height="4.188"/>
					<rect x="20.92" y="8.078" fill-rule="evenodd" clip-rule="evenodd" fill="none" width="3.588" height="4.188"/>
				</g>
				<rect x="21.562" y="9.02" width="2.303" height="2.303"/>
				<rect x="21.562" y="9.02" fill-rule="evenodd" clip-rule="evenodd" width="2.303" height="2.303"/>
			</g>
			<g>
				<g>
					<rect x="20.92" y="3.89" fill="none" width="3.588" height="4.188"/>
					<rect x="20.92" y="3.89" fill-rule="evenodd" clip-rule="evenodd" fill="none" width="3.588" height="4.188"/>
				</g>
				<rect x="21.562" y="4.833" width="2.303" height="2.303"/>
				<rect x="21.562" y="4.833" fill-rule="evenodd" clip-rule="evenodd" width="2.303" height="2.303"/>
			</g>
			<g>
				<g>
					<rect x="16.732" y="0.302" fill="none" width="4.188" height="3.588"/>
					<rect x="16.732" y="0.302" fill-rule="evenodd" clip-rule="evenodd" fill="none" width="4.188" height="3.588"/>
				</g>
				<rect x="17.675" y="0.946" width="2.303" height="2.303"/>
				<rect x="17.675" y="0.946" fill-rule="evenodd" clip-rule="evenodd" width="2.303" height="2.303"/>
			</g>
			<g>
				<g>
					<rect x="12.545" y="0.302" fill="none" width="4.188" height="3.588"/>
					<rect x="12.545" y="0.302" fill-rule="evenodd" clip-rule="evenodd" fill="none" width="4.188" height="3.588"/>
				</g>
				<rect x="13.487" y="0.946" width="2.303" height="2.303"/>
				<rect x="13.487" y="0.946" fill-rule="evenodd" clip-rule="evenodd" width="2.303" height="2.303"/>
			</g>
			<g>
				<g>
					<rect x="8.357" y="0.302" fill="none" width="4.188" height="3.588"/>
					<rect x="8.357" y="0.302" fill-rule="evenodd" clip-rule="evenodd" fill="none" width="4.188" height="3.588"/>
				</g>
				<rect x="9.3" y="0.946" width="2.303" height="2.303"/>
				<rect x="9.3" y="0.946" fill-rule="evenodd" clip-rule="evenodd" width="2.303" height="2.303"/>
			</g>
			<g>
				<g>
					<rect x="4.17" y="0.302" fill="none" width="4.188" height="3.588"/>
					<rect x="4.17" y="0.302" fill-rule="evenodd" clip-rule="evenodd" fill="none" width="4.188" height="3.588"/>
				</g>
				<rect x="5.112" y="0.946" width="2.303" height="2.303"/>
				<rect x="5.112" y="0.946" fill-rule="evenodd" clip-rule="evenodd" width="2.303" height="2.303"/>
			</g>
			<g>
				<g>
					<rect x="0.582" y="3.89" fill="none" width="3.588" height="4.188"/>
					<rect x="0.582" y="3.89" fill-rule="evenodd" clip-rule="evenodd" fill="none" width="3.588" height="4.188"/>
				</g>
				<rect x="1.226" y="4.833" width="2.303" height="2.303"/>
				<rect x="1.226" y="4.833" fill-rule="evenodd" clip-rule="evenodd" width="2.303" height="2.303"/>
			</g>
			<g>
				<g>
					<rect x="0.582" y="8.078" fill="none" width="3.588" height="4.188"/>
					<rect x="0.582" y="8.078" fill-rule="evenodd" clip-rule="evenodd" fill="none" width="3.588" height="4.188"/>
				</g>
				<rect x="1.226" y="9.02" width="2.303" height="2.303"/>
				<rect x="1.226" y="9.02" fill-rule="evenodd" clip-rule="evenodd" width="2.303" height="2.303"/>
			</g>
			<g>
				<g>
					<rect x="0.582" y="12.265" fill="none" width="3.588" height="4.188"/>
					<rect x="0.582" y="12.265" fill-rule="evenodd" clip-rule="evenodd" fill="none" width="3.588" height="4.188"/>
				</g>
				<rect x="1.226" y="13.208" width="2.303" height="2.303"/>
				<rect x="1.226" y="13.208" fill-rule="evenodd" clip-rule="evenodd" width="2.303" height="2.303"/>
			</g>
			<g>
				<g>
					<rect x="0.582" y="16.453" fill="none" width="3.588" height="4.188"/>
					<rect x="0.582" y="16.453" fill-rule="evenodd" clip-rule="evenodd" fill="none" width="3.588" height="4.188"/>
				</g>
				<rect x="1.226" y="17.395" width="2.303" height="2.303"/>
				<rect x="1.226" y="17.395" fill-rule="evenodd" clip-rule="evenodd" width="2.303" height="2.303"/>
			</g>
			<g>
				<g>
					<rect x="4.17" y="20.64" fill="none" width="4.188" height="3.588"/>
					<rect x="4.17" y="20.64" fill-rule="evenodd" clip-rule="evenodd" fill="none" width="4.188" height="3.588"/>
				</g>
				<rect x="5.112" y="21.282" width="2.303" height="2.303"/>
				<rect x="5.112" y="21.282" fill-rule="evenodd" clip-rule="evenodd" width="2.303" height="2.303"/>
			</g>
			<g>
				<g>
					<rect x="8.357" y="20.64" fill="none" width="4.188" height="3.588"/>
					<rect x="8.357" y="20.64" fill-rule="evenodd" clip-rule="evenodd" fill="none" width="4.188" height="3.588"/>
				</g>
				<rect x="9.3" y="21.282" width="2.303" height="2.303"/>
				<rect x="9.3" y="21.282" fill-rule="evenodd" clip-rule="evenodd" width="2.303" height="2.303"/>
			</g>
			<g>
				<g>
					<rect x="12.545" y="20.64" fill="none" width="4.188" height="3.588"/>
					<rect x="12.545" y="20.64" fill-rule="evenodd" clip-rule="evenodd" fill="none" width="4.188" height="3.588"/>
				</g>
				<rect x="13.487" y="21.282" width="2.303" height="2.303"/>
				<rect x="13.487" y="21.282" fill-rule="evenodd" clip-rule="evenodd" width="2.303" height="2.303"/>
			</g>
			<g>
				<g>
					<rect x="16.732" y="20.64" fill="none" width="4.188" height="3.588"/>
					<rect x="16.732" y="20.64" fill-rule="evenodd" clip-rule="evenodd" fill="none" width="4.188" height="3.588"/>
				</g>
				<rect x="17.675" y="21.282" width="2.303" height="2.303"/>
				<rect x="17.675" y="21.282" fill-rule="evenodd" clip-rule="evenodd" width="2.303" height="2.303"/>
			</g>
			<g>
				<g>
					<rect x="20.62" y="0.302" fill="none" width="4.188" height="3.588"/>
					<rect x="20.62" y="0.302" fill-rule="evenodd" clip-rule="evenodd" fill="none" width="4.188" height="3.588"/>
				</g>
				<rect x="21.563" y="0.944" width="2.303" height="2.303"/>
				<rect x="21.563" y="0.944" fill-rule="evenodd" clip-rule="evenodd" width="2.303" height="2.303"/>
			</g>
			<g>
				<g>
					<rect x="0.582" y="0.002" fill="none" width="3.588" height="4.188"/>
					<rect x="0.582" y="0.002" fill-rule="evenodd" clip-rule="evenodd" fill="none" width="3.588" height="4.188"/>
				</g>
				<rect x="1.224" y="0.945" width="2.303" height="2.303"/>
				<rect x="1.224" y="0.945" fill-rule="evenodd" clip-rule="evenodd" width="2.303" height="2.303"/>
			</g>
			<g>
				<g>
					<rect x="0.282" y="20.64" fill="none" width="4.188" height="3.588"/>
					<rect x="0.282" y="20.64" fill-rule="evenodd" clip-rule="evenodd" fill="none" width="4.188" height="3.588"/>
				</g>
				<rect x="1.225" y="21.284" width="2.303" height="2.303"/>
				<rect x="1.225" y="21.284" fill-rule="evenodd" clip-rule="evenodd" width="2.303" height="2.303"/>
			</g>
			<g>
				<g>
					<rect x="20.92" y="20.34" fill="none" width="3.588" height="4.188"/>
					<rect x="20.92" y="20.34" fill-rule="evenodd" clip-rule="evenodd" fill="none" width="3.588" height="4.188"/>
				</g>
				<rect x="21.563" y="21.283" width="2.303" height="2.303"/>
				<rect x="21.563" y="21.283" fill-rule="evenodd" clip-rule="evenodd" width="2.303" height="2.303"/>
			</g>
		</g>
	</g>
</g>
<g>
	<g>
		<rect x="13.203" y="5.124" width="6.508" height="6.507"/>
		<rect x="13.203" y="12.898" width="6.508" height="6.508"/>
	</g>
	<g>
		<rect x="5.38" y="5.124" width="6.506" height="6.507"/>
		<rect x="5.38" y="12.898" width="6.506" height="6.508"/>
	</g>
</g>
<g>
	<g>
		<rect x="13.203" y="80.365" width="6.508" height="6.508"/>
		<rect x="13.203" y="88.14" width="6.508" height="6.509"/>
	</g>
	<g>
		<rect x="5.38" y="80.365" width="6.506" height="6.508"/>
		<rect x="5.38" y="88.14" width="6.506" height="6.509"/>
	</g>
</g>
<g>
</g>
<g>
</g>
<g>
</g>
<g>
</g>
<g>
</g>
<g>
</g>
</svg>
