<?xml version="1.0" encoding="utf-8"?>
<!-- Generator: Adobe Illustrator 16.0.0, SVG Export Plug-In . SVG Version: 6.00 Build 0)  -->
<!DOCTYPE svg PUBLIC "-//W3C//DTD SVG 1.1//EN" "http://www.w3.org/Graphics/SVG/1.1/DTD/svg11.dtd">
<svg version="1.1" id="Warstwa_1" xmlns="http://www.w3.org/2000/svg" xmlns:xlink="http://www.w3.org/1999/xlink" x="0px" y="0px"
	 width="25px" height="100px" viewBox="0 0 25 100" enable-background="new 0 0 25 100" xml:space="preserve">
<g>
	<g>
		<g>
			<g>
				<g>
					<rect x="21.575" y="16.453" fill="none" width="3.588" height="4.188"/>
					<rect x="21.575" y="16.453" fill="none" width="3.588" height="4.188"/>
				</g>
				<rect x="22.218" y="17.395" width="2.303" height="2.303"/>
				<rect x="22.218" y="17.395" width="2.303" height="2.303"/>
			</g>
			<g>
				<g>
					<rect x="21.575" y="12.265" fill="none" width="3.588" height="4.188"/>
					<rect x="21.575" y="12.265" fill="none" width="3.588" height="4.188"/>
				</g>
				<rect x="22.218" y="13.208" width="2.303" height="2.303"/>
				<rect x="22.218" y="13.208" width="2.303" height="2.303"/>
			</g>
			<g>
				<g>
					<rect x="21.575" y="8.078" fill="none" width="3.588" height="4.188"/>
					<rect x="21.575" y="8.078" fill="none" width="3.588" height="4.188"/>
				</g>
				<rect x="22.218" y="9.02" width="2.303" height="2.303"/>
				<rect x="22.218" y="9.02" width="2.303" height="2.303"/>
			</g>
			<g>
				<g>
					<rect x="21.575" y="3.89" fill="none" width="3.588" height="4.188"/>
					<rect x="21.575" y="3.89" fill="none" width="3.588" height="4.188"/>
				</g>
				<rect x="22.218" y="4.833" width="2.303" height="2.303"/>
				<rect x="22.218" y="4.833" width="2.303" height="2.303"/>
			</g>
			<g>
				<g>
					<rect x="17.388" y="0.302" fill="none" width="4.188" height="3.588"/>
					<rect x="17.388" y="0.302" fill="none" width="4.188" height="3.588"/>
				</g>
				<rect x="18.329" y="0.946" width="2.305" height="2.303"/>
				<rect x="18.329" y="0.946" width="2.305" height="2.303"/>
			</g>
			<g>
				<g>
					<rect x="13.199" y="0.302" fill="none" width="4.188" height="3.588"/>
					<rect x="13.199" y="0.302" fill="none" width="4.188" height="3.588"/>
				</g>
				<rect x="14.142" y="0.946" width="2.303" height="2.303"/>
				<rect x="14.142" y="0.946" width="2.303" height="2.303"/>
			</g>
			<g>
				<g>
					<rect x="9.012" y="0.302" fill="none" width="4.188" height="3.588"/>
					<rect x="9.012" y="0.302" fill="none" width="4.188" height="3.588"/>
				</g>
				<rect x="9.954" y="0.946" width="2.304" height="2.303"/>
				<rect x="9.954" y="0.946" width="2.304" height="2.303"/>
			</g>
			<g>
				<g>
					<rect x="4.824" y="0.302" fill="none" width="4.188" height="3.588"/>
					<rect x="4.824" y="0.302" fill="none" width="4.188" height="3.588"/>
				</g>
				<rect x="5.767" y="0.946" width="2.303" height="2.303"/>
				<rect x="5.767" y="0.946" width="2.303" height="2.303"/>
			</g>
			<g>
				<g>
					<rect x="1.236" y="3.89" fill="none" width="3.588" height="4.188"/>
					<rect x="1.236" y="3.89" fill="none" width="3.588" height="4.188"/>
				</g>
				<rect x="1.881" y="4.833" width="2.303" height="2.303"/>
				<rect x="1.881" y="4.833" width="2.303" height="2.303"/>
			</g>
			<g>
				<g>
					<rect x="1.236" y="8.078" fill="none" width="3.588" height="4.188"/>
					<rect x="1.236" y="8.078" fill="none" width="3.588" height="4.188"/>
				</g>
				<rect x="1.881" y="9.02" width="2.303" height="2.303"/>
				<rect x="1.881" y="9.02" width="2.303" height="2.303"/>
			</g>
			<g>
				<g>
					<rect x="1.236" y="12.265" fill="none" width="3.588" height="4.188"/>
					<rect x="1.236" y="12.265" fill="none" width="3.588" height="4.188"/>
				</g>
				<rect x="1.881" y="13.208" width="2.303" height="2.303"/>
				<rect x="1.881" y="13.208" width="2.303" height="2.303"/>
			</g>
			<g>
				<g>
					<rect x="1.236" y="16.453" fill="none" width="3.588" height="4.188"/>
					<rect x="1.236" y="16.453" fill="none" width="3.588" height="4.188"/>
				</g>
				<rect x="1.881" y="17.395" width="2.303" height="2.303"/>
				<rect x="1.881" y="17.395" width="2.303" height="2.303"/>
			</g>
			<g>
				<g>
					<rect x="4.824" y="20.64" fill="none" width="4.188" height="3.588"/>
					<rect x="4.824" y="20.64" fill="none" width="4.188" height="3.588"/>
				</g>
				<rect x="5.767" y="21.282" width="2.303" height="2.303"/>
				<rect x="5.767" y="21.282" width="2.303" height="2.303"/>
			</g>
			<g>
				<g>
					<rect x="9.012" y="20.64" fill="none" width="4.188" height="3.588"/>
					<rect x="9.012" y="20.64" fill="none" width="4.188" height="3.588"/>
				</g>
				<rect x="9.954" y="21.282" width="2.304" height="2.303"/>
				<rect x="9.954" y="21.282" width="2.304" height="2.303"/>
			</g>
			<g>
				<g>
					<rect x="13.199" y="20.64" fill="none" width="4.188" height="3.588"/>
					<rect x="13.199" y="20.64" fill="none" width="4.188" height="3.588"/>
				</g>
				<rect x="14.142" y="21.282" width="2.303" height="2.303"/>
				<rect x="14.142" y="21.282" width="2.303" height="2.303"/>
			</g>
			<g>
				<g>
					<rect x="17.388" y="20.64" fill="none" width="4.188" height="3.588"/>
					<rect x="17.388" y="20.64" fill="none" width="4.188" height="3.588"/>
				</g>
				<rect x="18.329" y="21.282" width="2.305" height="2.303"/>
				<rect x="18.329" y="21.282" width="2.305" height="2.303"/>
			</g>
			<g>
				<g>
					<rect x="21.274" y="0.302" fill="none" width="4.189" height="3.588"/>
					<rect x="21.274" y="0.302" fill="none" width="4.189" height="3.588"/>
				</g>
				<rect x="22.218" y="0.944" width="2.303" height="2.303"/>
				<rect x="22.218" y="0.944" width="2.303" height="2.303"/>
			</g>
			<g>
				<g>
					<rect x="1.236" y="0.002" fill="none" width="3.588" height="4.188"/>
					<rect x="1.236" y="0.002" fill="none" width="3.588" height="4.188"/>
				</g>
				<rect x="1.879" y="0.945" width="2.303" height="2.303"/>
				<rect x="1.879" y="0.945" width="2.303" height="2.303"/>
			</g>
			<g>
				<g>
					<rect x="0.937" y="20.64" fill="none" width="4.188" height="3.588"/>
					<rect x="0.937" y="20.64" fill="none" width="4.188" height="3.588"/>
				</g>
				<rect x="1.88" y="21.284" width="2.303" height="2.303"/>
				<rect x="1.88" y="21.284" width="2.303" height="2.303"/>
			</g>
			<g>
				<g>
					<rect x="21.575" y="20.34" fill="none" width="3.588" height="4.188"/>
					<rect x="21.575" y="20.34" fill="none" width="3.588" height="4.188"/>
				</g>
				<rect x="22.218" y="21.283" width="2.303" height="2.303"/>
				<rect x="22.218" y="21.283" width="2.303" height="2.303"/>
			</g>
		</g>
	</g>
</g>
<g>
	<g>
		<rect x="13.858" y="5.124" width="6.508" height="6.507"/>
		<rect x="13.858" y="12.898" width="6.508" height="6.508"/>
	</g>
	<g>
		<rect x="6.034" y="5.124" width="6.507" height="6.507"/>
		<rect x="6.034" y="12.898" width="6.507" height="6.508"/>
	</g>
</g>
<g>
	<g>
		<rect x="13.858" y="80.365" width="6.508" height="6.508"/>
		<rect x="13.858" y="88.141" width="6.508" height="6.508"/>
	</g>
	<g>
		<rect x="6.034" y="80.365" width="6.507" height="6.508"/>
		<rect x="6.034" y="88.141" width="6.507" height="6.508"/>
	</g>
</g>
</svg>
