<?xml version="1.0" encoding="utf-8"?>
<!-- Generator: Adobe Illustrator 16.0.0, SVG Export Plug-In . SVG Version: 6.00 Build 0)  -->
<!DOCTYPE svg PUBLIC "-//W3C//DTD SVG 1.0//EN" "http://www.w3.org/TR/2001/REC-SVG-20010904/DTD/svg10.dtd">
<svg version="1.0" id="Warstwa_1" xmlns="http://www.w3.org/2000/svg" xmlns:xlink="http://www.w3.org/1999/xlink" x="0px" y="0px"
	 width="25px" height="100px" viewBox="0 0 25 100" enable-background="new 0 0 25 100" xml:space="preserve">
<line x1="18.297" y1="4.453" x2="18.297" y2="4.5"/>
<line x1="6.938" y1="4.453" x2="7" y2="4.453"/>
<g>
	<path d="M18.965,3.957c-0.01-0.711-0.51-1.283-1.123-1.283H6.158c-0.616,0-1.112,0.572-1.123,1.283H5.031v1.414h13.938V3.957
		H18.965z"/>
	<path d="M6.338,22.795h11.324l1.307-16.327H5.032L6.338,22.795z"/>
</g>
<line x1="32.047" y1="78.828" x2="32.047" y2="78.875"/>
<line x1="20.688" y1="78.828" x2="20.75" y2="78.828"/>
<g>
	<path fill="#878787" d="M18.965,78.998c-0.01-0.711-0.51-1.283-1.123-1.283H6.158c-0.616,0-1.112,0.572-1.123,1.283H5.031v1.414
		h13.938v-1.414H18.965z"/>
	<path fill="#878787" d="M6.339,97.795h11.323l1.307-16.327H5.032L6.339,97.795z"/>
</g>
<g>
</g>
<g>
</g>
<g>
</g>
<g>
</g>
<g>
</g>
<g>
</g>
</svg>
